<?xml version="1.0" encoding="utf-8"?>
<!-- Generator: Adobe Illustrator 28.2.0, SVG Export Plug-In . SVG Version: 6.00 Build 0)  -->
<svg version="1.1" id="Layer_1" xmlns="http://www.w3.org/2000/svg" xmlns:xlink="http://www.w3.org/1999/xlink" x="0px" y="0px"
	 viewBox="0 0 399.7 400" style="enable-background:new 0 0 399.7 400;" xml:space="preserve">
<style type="text/css">
	.st0{fill:#E0EEF9;}
	.st1{fill:#FFFFFF;}
</style>
<path class="st0" d="M199.9,0C89.4,0-0.2,89.5-0.2,200s89.5,200,200,200s200-89.5,200-200S310.3,0,199.9,0z M317.6,270.7
	c0,6.5-2.3,12-6.9,16.6s-10.2,6.9-16.6,6.9H105.6c-6.5,0-12-2.3-16.6-6.9c-4.6-4.6-6.9-10.2-6.9-16.6V129.3c0-6.5,2.3-12,6.9-16.6
	s10.2-6.9,16.6-6.9h188.5c6.5,0,12,2.3,16.6,6.9s6.9,10.2,6.9,16.6V270.7z"/>
<polygon points="105.6,152.9 105.6,270.7 294.1,270.7 294.1,152.9 199.9,211.8 "/>
<polygon points="199.9,188.2 294.1,129.3 105.6,129.3 "/>
<polygon class="st1" points="105.6,152.9 105.6,270.7 294.1,270.7 294.1,152.9 199.9,211.8 "/>
<polygon class="st1" points="199.9,188.2 294.1,129.3 105.6,129.3 "/>
<polygon class="st0" points="105.6,152.9 105.6,270.7 294.1,270.7 294.1,152.9 199.9,211.8 "/>
<polygon class="st0" points="199.9,188.2 294.1,129.3 105.6,129.3 "/>
</svg>
