<?xml version="1.0" encoding="utf-8"?>
<!-- Generator: Adobe Illustrator 28.2.0, SVG Export Plug-In . SVG Version: 6.00 Build 0)  -->
<svg version="1.1" id="Layer_1" xmlns="http://www.w3.org/2000/svg" xmlns:xlink="http://www.w3.org/1999/xlink" x="0px" y="0px"
	 viewBox="0 0 399.7 400" style="enable-background:new 0 0 399.7 400;" xml:space="preserve">
<style type="text/css">
	.st0{fill-rule:evenodd;clip-rule:evenodd;fill:#E0EEF9;}
</style>
<path class="st0" d="M200,0C89.3,0-0.2,91.7-0.2,205.1c0,90.6,57.3,167.4,136.9,194.5c9.9,2,13.6-4.4,13.6-9.8c0-4.8-0.3-21-0.3-38
	c-55.7,12.2-67.3-24.5-67.3-24.5c-8.9-23.8-22.2-29.9-22.2-29.9c-18.2-12.6,1.3-12.6,1.3-12.6c20.2,1.4,30.8,21,30.8,21
	c17.9,31.2,46.7,22.4,58.3,17c1.7-13.2,7-22.4,12.6-27.5c-44.4-4.8-91.1-22.4-91.1-101.2c0-22.4,7.9-40.7,20.5-55
	c-2-5.1-8.9-26.2,2-54.3c0,0,16.9-5.4,55,21c16.3-4.5,33.1-6.8,50-6.8c16.9,0,34.1,2.4,50,6.8c38.1-26.5,55-21.1,55-21.1
	c10.9,28.2,4,49.2,2,54.3c12.9,14.3,20.5,32.6,20.5,55c0,78.8-46.7,96.1-91.5,101.2c7.3,6.5,13.6,18.7,13.6,38
	c0,27.5-0.3,49.6-0.3,56.4c0,5.4,3.6,11.9,13.6,9.9c79.5-27.2,136.9-103.9,136.9-194.6C400.2,91.7,310.4,0,200,0z"/>
</svg>
