<?xml version="1.0" encoding="utf-8"?>
<!-- Generator: Adobe Illustrator 28.2.0, SVG Export Plug-In . SVG Version: 6.00 Build 0)  -->
<svg version="1.1" id="Layer_1" xmlns="http://www.w3.org/2000/svg" xmlns:xlink="http://www.w3.org/1999/xlink" x="0px" y="0px"
	 viewBox="0 0 399.7 400" style="enable-background:new 0 0 399.7 400;" xml:space="preserve">
<style type="text/css">
	.st0{fill-rule:evenodd;clip-rule:evenodd;fill:#E0EEF9;}
</style>
<path id="Artwork" class="st0" d="M199.9,0c110.4,0,200,89.6,200,200s-89.6,200-200,200s-200-89.6-200-200S89.5,0,199.9,0z
	 M333.2,200c0-16.1-13.1-29.2-29.2-29.2c-8,0-15,3-20.1,8.2c-19.9-14.3-47.5-23.6-77.9-24.8l13.3-62.5l43.3,9.1
	c0.5,11,9.6,19.9,20.8,19.9s20.8-9.4,20.8-20.8S294.8,79,283.4,79c-8.2,0-15.2,4.7-18.5,11.7l-48.4-10.3c-1.4-0.2-2.8,0-4,0.7
	s-1.9,1.9-2.3,3.3l-14.7,69.7c-31.1,0.9-58.9,10.1-79.1,24.8c-5.2-4.9-12.4-8.2-20.1-8.2C80.1,170.8,67,183.9,67,200
	c0,11.9,7,22,17.3,26.7c-0.5,2.8-0.7,5.9-0.7,8.9c0,44.9,52.2,81.2,116.7,81.2S317,280.5,317,235.6c0-3-0.2-5.9-0.7-8.6
	C325.9,222.2,333.2,211.9,333.2,200L333.2,200L333.2,200z M249.4,275.8C235.2,290.1,208,291,200.1,291s-35.3-1.2-49.4-15.2
	c-2.1-2.1-2.1-5.6,0-7.7s5.6-2.1,7.7,0c8.9,8.9,28.1,12.2,41.9,12.2s32.8-3.3,41.9-12.2c2.1-2.1,5.6-2.1,7.7,0
	C251.5,270.4,251.5,273.7,249.4,275.8L249.4,275.8L249.4,275.8z M133.2,220.8c0-11.5,9.4-20.8,20.8-20.8s20.8,9.4,20.8,20.8
	s-9.4,20.8-20.8,20.8S133.2,232.3,133.2,220.8z M245.7,241.6c-11.5,0-20.8-9.4-20.8-20.8s9.4-20.8,20.8-20.8
	c11.5,0,20.8,9.4,20.8,20.8S257.2,241.6,245.7,241.6L245.7,241.6z"/>
</svg>
