<?xml version="1.0" encoding="utf-8"?>
<!-- Generator: Adobe Illustrator 28.2.0, SVG Export Plug-In . SVG Version: 6.00 Build 0)  -->
<svg version="1.1" id="Layer_1" xmlns="http://www.w3.org/2000/svg" xmlns:xlink="http://www.w3.org/1999/xlink" x="0px" y="0px"
	 viewBox="0 0 399.7 400" style="enable-background:new 0 0 399.7 400;" xml:space="preserve">
<style type="text/css">
	.st0{fill-rule:evenodd;clip-rule:evenodd;fill:#E0EEF9;}
</style>
<path class="st0" d="M200,0.2c110.4,0,200,89.6,200,200s-89.6,200-200,200S0,310.6,0,200.2S89.6,0.2,200,0.2z M164.8,306.6
	c88.5,0,136.9-73.3,136.9-136.9c0-2.1,0-4.2-0.1-6.2c9.4-6.8,17.6-15.3,24-24.9c-8.6,3.8-17.9,6.4-27.6,7.6
	c10-6,17.6-15.4,21.1-26.6c-9.3,5.5-19.6,9.5-30.5,11.7c-8.8-9.4-21.2-15.2-35.1-15.2c-26.5,0-48.1,21.6-48.1,48.1
	c0,3.8,0.4,7.5,1.3,11c-40-2-75.4-21.1-99.2-50.3c-4.1,7.1-6.5,15.4-6.5,24.2c0,16.7,8.5,31.4,21.4,40c-7.9-0.2-15.3-2.4-21.8-6v0.6
	c0,23.4,16.6,42.7,38.6,47.2c-4,1.1-8.3,1.7-12.7,1.7c-3.1,0-6.1-0.3-9.1-0.9c6.1,19.2,23.9,33,44.9,33.4
	c-16.5,12.9-37.2,20.5-59.8,20.5c-3.9,0-7.7-0.2-11.5-0.7C112.3,298.6,137.6,306.6,164.8,306.6L164.8,306.6L164.8,306.6z"/>
</svg>
